<mxfile host="app.diagrams.net" agent="Mozilla/5.0 (Windows NT 10.0; Win64; x64) AppleWebKit/537.36 (KHTML, like Gecko) Chrome/133.0.0.0 Safari/537.36" version="26.1.0">
  <diagram name="第 1 页" id="7N0UxWFRY3nmoFxoL28t">
    <mxGraphModel dx="1434" dy="738" grid="1" gridSize="10" guides="1" tooltips="1" connect="1" arrows="1" fold="1" page="1" pageScale="1" pageWidth="827" pageHeight="1169" math="0" shadow="0">
      <root>
        <mxCell id="0" />
        <mxCell id="1" parent="0" />
        <mxCell id="RWw70aQlsyqfQJQjgOHQ-1" value="设备层（提供基础数据）传感器、执行器等" style="shape=trapezoid;perimeter=trapezoidPerimeter;whiteSpace=wrap;html=1;fixedSize=1;fillColor=#fff2cc;strokeColor=#d6b656;" vertex="1" parent="1">
          <mxGeometry x="180" y="450" width="500" height="60" as="geometry" />
        </mxCell>
        <mxCell id="RWw70aQlsyqfQJQjgOHQ-2" value="控制层（设备控制、数据采集和监控）SCADA、PLC等" style="shape=trapezoid;perimeter=trapezoidPerimeter;whiteSpace=wrap;html=1;fixedSize=1;fillColor=#dae8fc;strokeColor=#6c8ebf;" vertex="1" parent="1">
          <mxGeometry x="200" y="390" width="460" height="60" as="geometry" />
        </mxCell>
        <mxCell id="RWw70aQlsyqfQJQjgOHQ-3" value="运营层（生产执行、库存管理和质量控制）MES、WMS和QMS" style="shape=trapezoid;perimeter=trapezoidPerimeter;whiteSpace=wrap;html=1;fixedSize=1;fillColor=#fff2cc;strokeColor=#d6b656;" vertex="1" parent="1">
          <mxGeometry x="220" y="330" width="420" height="60" as="geometry" />
        </mxCell>
        <mxCell id="RWw70aQlsyqfQJQjgOHQ-6" value="企业层（战略规划和资源协调）ERP、SCM、CRM、PLM" style="shape=trapezoid;perimeter=trapezoidPerimeter;whiteSpace=wrap;html=1;fixedSize=1;fillColor=#dae8fc;strokeColor=#6c8ebf;" vertex="1" parent="1">
          <mxGeometry x="240" y="270" width="380" height="60" as="geometry" />
        </mxCell>
        <mxCell id="RWw70aQlsyqfQJQjgOHQ-7" value="" style="verticalLabelPosition=bottom;verticalAlign=top;html=1;shape=mxgraph.basic.orthogonal_triangle;rotation=90;fillColor=#e1d5e7;strokeColor=#9673a6;" vertex="1" parent="1">
          <mxGeometry x="100" y="350" width="240" height="80" as="geometry" />
        </mxCell>
        <mxCell id="RWw70aQlsyqfQJQjgOHQ-8" value="" style="verticalLabelPosition=bottom;verticalAlign=top;html=1;shape=mxgraph.basic.orthogonal_triangle;rotation=-180;fillColor=#e1d5e7;strokeColor=#9673a6;" vertex="1" parent="1">
          <mxGeometry x="600" y="270" width="80" height="240" as="geometry" />
        </mxCell>
        <mxCell id="RWw70aQlsyqfQJQjgOHQ-10" value="数据支持层&lt;div&gt;（数据中台、BI等）&lt;/div&gt;" style="text;html=1;align=center;verticalAlign=middle;resizable=0;points=[];autosize=1;strokeColor=none;fillColor=none;rotation=90;" vertex="1" parent="1">
          <mxGeometry x="594" y="303" width="130" height="40" as="geometry" />
        </mxCell>
        <mxCell id="RWw70aQlsyqfQJQjgOHQ-11" value="数据支持层&lt;div&gt;（数据整合和分析支持）&lt;/div&gt;" style="text;html=1;align=center;verticalAlign=middle;resizable=0;points=[];autosize=1;strokeColor=none;fillColor=none;rotation=-90;" vertex="1" parent="1">
          <mxGeometry x="120" y="313" width="160" height="40" as="geometry" />
        </mxCell>
      </root>
    </mxGraphModel>
  </diagram>
</mxfile>
